{"title":"Spiral.2007.SWESUB.DVDRip.XviD.AC3.(5.1).-Zen_Bud.avi","uid":5694801,"size":1469384372,"categoryP":"video","categoryS":"movies","magnet":"?xt=urn:btih:9049400f79b759d2c1240e1b633db9c1d45b90cd&amp;dn=Spiral.2007.SWESUB.DVDRip.XviD.AC3.%285.1%29.-Zen_Bud.avi&amp;tr=udp%3A%2F%2Ftracker.openbittorrent.com%3A80&amp;tr=udp%3A%2F%2Fopen.demonii.com%3A1337&amp;tr=udp%3A%2F%2Ftracker.coppersurfer.tk%3A6969&amp;tr=udp%3A%2F%2Fexodus.desync.com%3A6969","seeders":0,"leechers":1,"uploader":null,"files":1,"time":1279269371,"description":"General\nComplete name                    : Spiral.2007.avi\nFormat                           : AVI\nFile size                        : 1.37 GiB\nDuration                         : 1h 26mn\nOverall bit rate                 : 2 254 Kbps\n\nVideo\n\nFormat                           : MPEG-4 Visual\nCodec ID/Hint                    : XviD\nDuration                         : 1h 26mn\nBit rate                         : 1 795 Kbps\nWidth                            : 720 pixels\nHeight                           : 576 pixels\nDisplay aspect ratio             : 16:9\nStream size                      : 1.09 GiB (80%)\nWriting library                  : XviD 1.1.2 (UTC 2006-11-01)\n\nAudio\n\nFormat                           : AC-3\nDuration                         : 1h 26mn\nBit rate                         : 448 Kbps\nChannel(s)                       : 6 channels\nChannel positions                : Front: L C R, Side: L R, LFE\nSampling rate                    : 48.0 KHz\nStream size                      : 279 MiB (20%)\n\n\n","torrent":{"xt":"urn:btih:9049400f79b759d2c1240e1b633db9c1d45b90cd","amp;dn":"Spiral.2007.SWESUB.DVDRip.XviD.AC3.%285.1%29.-Zen_Bud.avi","amp;tr":["udp%3A%2F%2Ftracker.openbittorrent.com%3A80","udp%3A%2F%2Fopen.demonii.com%3A1337","udp%3A%2F%2Ftracker.coppersurfer.tk%3A6969","udp%3A%2F%2Fexodus.desync.com%3A6969"],"infoHash":"9049400f79b759d2c1240e1b633db9c1d45b90cd","infoHashBuffer":{"type":"Buffer","data":[144,73,64,15,121,183,89,210,193,36,14,27,99,61,185,193,212,91,144,205]},"announce":[],"urlList":[]}}